<svg xmlns="http://www.w3.org/2000/svg" width="12" height="12"  fill="#1a1a1a" fill-rule="evenodd"><path d="M5.37 7.633l3.19-4.556c.199-.284.588-.355.873-.155a.63.63 0 0 1 .153.874l-3.59 5.128a.63.63 0 0 1-.513.269.62.62 0 0 1-.502-.177L2.79 6.825c-.243-.243-.243-.637.003-.883a.63.63 0 0 1 .883-.003L5.37 7.633h0zM0 2.997A3 3 0 0 1 2.997 0h6.006A3 3 0 0 1 12 2.997v6.006A3 3 0 0 1 9.003 12H2.997A3 3 0 0 1 0 9.003V2.997h0zM1 3c0-1.104.887-2 2-2h6c1.104 0 2 .887 2 2v6c0 1.104-.887 2-2 2H3c-1.104 0-2-.887-2-2V3h0z"/></svg>